<?xml version="1.0" encoding="UTF-8" standalone="no"?>
<!-- Created with Inkscape (http://www.inkscape.org/) -->

<svg
   width="177.04158mm"
   height="205.15781mm"
   viewBox="0 0 177.04158 205.15781"
   version="1.1"
   id="svg5"
   xml:space="preserve"
   inkscape:export-filename="brain_icon.svg"
   inkscape:export-xdpi="96"
   inkscape:export-ydpi="96"
   xmlns:inkscape="http://www.inkscape.org/namespaces/inkscape"
   xmlns:sodipodi="http://sodipodi.sourceforge.net/DTD/sodipodi-0.dtd"
   xmlns="http://www.w3.org/2000/svg"
   xmlns:svg="http://www.w3.org/2000/svg"><sodipodi:namedview
     id="namedview7"
     pagecolor="#ffffff"
     bordercolor="#000000"
     borderopacity="0.25"
     inkscape:showpageshadow="2"
     inkscape:pageopacity="0.0"
     inkscape:pagecheckerboard="0"
     inkscape:deskcolor="#d1d1d1"
     inkscape:document-units="mm"
     showgrid="false"
     showguides="false" /><defs
     id="defs2" /><g
     inkscape:label="Layer 1"
     inkscape:groupmode="layer"
     id="layer1"
     transform="translate(-232.83184,-46.061972)"><path
       style="fill:#ffffff;stroke-width:0.372708"
       d="m 293.92036,250.66819 c -2.31864,-0.94363 -2.23252,-0.21159 -2.34641,-19.94704 -0.10383,-17.99098 -0.10383,-17.99098 -0.93442,-17.81313 -28.00473,5.99609 -33.61873,2.49969 -37.26952,-23.21142 -2.34419,-16.50923 -1.89673,-14.8645 -4.04641,-14.87353 -9.61204,-0.0404 -16.01165,-5.21103 -16.45002,-13.29086 -0.232,-4.27634 0.20195,-5.26764 9.34373,-21.34375 8.17902,-14.3831 8.59165,-15.20173 8.35741,-16.58039 -2.28438,-13.44477 8.1384,-39.310304 21.50535,-53.36839 46.58544,-48.994052 132.00649,-18.859704 137.58728,48.53725 1.88339,22.74503 -9.28874,54.8895 -27.58855,79.37776 -3.12672,4.18409 -3.12672,4.18409 -3.12672,27.26084 0,23.07676 0,23.07676 -1.2708,24.34039 -1.21871,1.21182 -80.8927,2.07959 -83.76092,0.91227 z M 371.103,221.14196 c 0,-21.70119 0,-21.70119 1.21475,-23.37903 0.6681,-0.92282 2.68106,-3.65879 4.47325,-6.07997 35.02309,-47.31477 32.3339,-98.644674 -6.54523,-124.931558 -47.78815,-32.310403 -111.64629,0.636193 -111.64629,57.602188 0,3.33425 0,3.33425 -8.28393,17.89293 -9.63678,16.93623 -9.81743,17.30143 -9.47297,19.14949 0.76576,4.10833 2.95169,5.25802 9.99715,5.25802 5.40119,0 6.90324,0.50366 7.5506,2.53183 0.23004,0.7207 3.70659,23.95988 4.3268,28.9228 0.56289,4.50417 1.91858,6.82111 4.85274,8.29368 2.5044,1.25688 3.21245,1.23154 15.93222,-0.57029 17.79229,-2.52035 15.98937,-4.65032 16.13497,19.06188 0.11019,17.94922 0.11019,17.94922 35.78808,17.94922 35.67786,0 35.67786,0 35.67786,-21.70119 z m -91.93733,-76.26802 c -7.77383,-2.0772 -13.08743,-10.42169 -11.63329,-18.26895 2.4752,-13.35753 16.89072,-17.58743 26.70708,-7.83661 4.02742,4.00052 5.87457,4.45005 8.3149,2.02352 5.25551,-5.22582 -5.93474,-15.41372 -18.07159,-16.45284 -1.49039,-0.12755 -2.7098,-0.33957 -2.7098,-0.47105 0,-16.627838 23.41519,-22.64285 37.56602,-9.650146 3.70296,3.39991 5.95999,3.681828 8.20807,1.025232 3.0018,-3.547274 -2.56788,-10.517929 -11.56659,-14.476001 -5.10117,-2.243738 5.65942,-11.114823 13.48219,-11.114823 9.3163,0 14.52916,5.189707 16.79903,16.724444 1.262,6.413139 3.14936,8.387793 6.72394,7.034976 2.74241,-1.03786 3.13793,-2.205695 2.69146,-7.94692 -0.21956,-2.823416 8.43879,-2.781964 14.09767,0.06742 7.6854,3.869886 12.80076,18.380418 6.74785,19.141308 -12.95608,1.62866 -25.33848,16.44742 -17.64229,21.11355 2.83619,1.71956 5.30773,0.50676 7.14737,-3.50726 3.11458,-6.7959 11.58925,-10.50721 17.60303,-7.70892 12.43118,5.78439 12.3294,23.46072 -0.1691,29.36268 -3.0081,1.42048 -14.97497,2.38266 -14.97497,1.20405 0,-2.45265 4.93236,-7.87807 9.35981,-10.29545 5.45931,-2.98077 6.06251,-7.83971 1.16584,-9.39102 -5.53407,-1.75326 -17.82004,9.43064 -19.55959,17.80508 -0.45978,2.21346 -0.45978,2.21346 -11.45107,2.21346 -9.87338,0 -10.9682,-0.0598 -10.76422,-0.58842 0.55475,-1.43748 0.66658,-6.80045 0.19698,-9.44625 -1.43302,-8.07391 2.49198,-13.82749 13.03008,-19.10045 5.28478,-2.64435 5.62934,-8.42528 0.55856,-9.37119 -3.83894,-0.71612 -14.24999,6.16957 -19.00061,12.56668 -1.57328,2.11855 -1.5751,2.11963 -2.2713,1.34961 -1.01984,-1.12795 -4.88582,-3.79067 -7.13181,-4.91208 -7.28715,-3.63843 -10.95144,4.59194 -3.73889,8.39796 7.21966,3.80976 10.86619,11.27939 9.25941,18.96713 -0.60883,2.91291 -23.78008,3.42816 -28.00511,0.62272 -4.44442,-2.9511 -8.07775,-8.46977 -9.03518,-13.72353 -1.16197,-6.37621 -4.54581,-8.67211 -8.06071,-5.46914 -2.8005,2.55197 -0.78076,12.66901 3.72081,18.63797 1.6201,2.14817 1.69814,2.07101 -2.06793,2.04453 -1.91367,-0.014 -4.40039,-0.27055 -5.52605,-0.57134 z"
       id="path1499" /></g></svg>
